<svg xmlns="http://www.w3.org/2000/svg" version="1.1" xmlns:xlink="http://www.w3.org/1999/xlink" xmlns:svgjs="http://svgjs.dev/svgjs" width="131" height="40" viewBox="0 0 1000 247"><g transform="matrix(1,0,0,1,-0.6060606060606233,-0.3153917131293582)"><svg viewBox="0 0 396 98" data-background-color="#ffffff" preserveAspectRatio="xMidYMid meet" height="247" width="1000" xmlns="http://www.w3.org/2000/svg" xmlns:xlink="http://www.w3.org/1999/xlink"><g id="tight-bounds" transform="matrix(1,0,0,1,0.2400000000000091,0.1251351736302695)"><svg viewBox="0 0 395.52 97.74943139680003" height="97.74943139680003" width="395.52"><g><svg viewBox="0 0 575.0532773818742 142.11956636060006" height="97.74943139680003" width="395.52"><g transform="matrix(1,0,0,1,179.5332773818742,31.439373840432637)"><svg viewBox="0 0 395.52 79.24081867973479" height="79.24081867973479" width="395.52"><g id="textblocktransform"><svg viewBox="0 0 395.52 79.24081867973479" height="79.24081867973479" width="395.52" id="textblock"><g><svg viewBox="0 0 395.52 79.24081867973479" height="79.24081867973479" width="395.52"><g transform="matrix(1,0,0,1,0,0)"><svg width="395.52" viewBox="3.5 -34.349998474121094 173.44000244140625 34.75" height="79.24081867973479" data-palette-color="#ee3e38"><path d="M7.55 0L3.5 0 5.95-33.7 11.1-33.7 15.55-21.4 20.95-5.7Q23.85-13.9 26.65-21.4L26.65-21.4 31.3-33.7 36.45-33.7 39.4 0 35.35 0 34.2-13.3 33-28.25Q30.35-20.85 27.55-13.3L27.55-13.3 22.85-0.75 19-0.75 14.55-13.3 9.45-27.95Q9.45-26 8.5-13.3L8.5-13.3 7.55 0ZM45.25-17L45.25-17Q45.25-24.95 49.32-29.65 53.4-34.35 60.35-34.35L60.35-34.35Q67.45-34.35 71.47-29.68 75.5-25 75.5-17L75.5-17Q75.5-9.05 71.42-4.33 67.35 0.4 60.4 0.4L60.4 0.4Q53.55 0.4 49.4-4.35 45.25-9.1 45.25-17ZM49.5-17L49.5-17Q49.5-10.75 52.47-7.1 55.45-3.45 60.4-3.45L60.4-3.45Q65.55-3.45 68.37-7.05 71.2-10.65 71.2-17 71.2-23.35 68.35-26.95 65.5-30.55 60.35-30.55L60.35-30.55Q55.25-30.55 52.37-26.93 49.5-23.3 49.5-17ZM103.55-33.7L107.89-33.7 96.14 0 91.05 0 79.64-33.7 84-33.7 88.39-20.35 93.64-3.65Q95.59-9.95 99.05-20.35L99.05-20.35 103.55-33.7ZM117.89 0L113.84 0 113.84-33.7 117.89-33.7 117.89 0ZM146.44-12.7L146.44-12.7 146.44-33.7 150.49-33.7 150.49-12.8Q150.49-6.3 147.22-2.95 143.94 0.4 138.09 0.4L138.09 0.4Q132.34 0.4 129.09-2.88 125.84-6.15 125.84-12.4L125.84-12.4 125.84-33.7 129.89-33.7 129.89-12.45Q129.89-7.8 132.11-5.6 134.34-3.4 138.09-3.4L138.09-3.4Q146.44-3.4 146.44-12.7ZM162.19-15.05L162.19-3.55 176.94-3.55 176.94 0 158.14 0 158.14-33.7 176.69-33.7 176.69-30.15 162.19-30.15 162.19-18.6 174.99-18.6 174.99-15.05 162.19-15.05Z" opacity="1" transform="matrix(1,0,0,1,0,0)" fill="#ee3e38" class="undefined-text-0" data-fill-palette-color="primary" id="text-0"></path></svg></g></svg></g></svg></g></svg></g><g><svg viewBox="0 0 142.11956636060006 142.11956636060006" height="142.11956636060006" width="142.11956636060006"><g><svg></svg></g><g id="icon-0"><svg viewBox="0 0 142.11956636060006 142.11956636060006" height="142.11956636060006" width="142.11956636060006"><g><path d="M0 71.06c0-39.245 31.815-71.06 71.06-71.06 39.245 0 71.06 31.815 71.06 71.06 0 39.245-31.815 71.06-71.06 71.06-39.245 0-71.06-31.815-71.06-71.06zM71.06 134.974c35.299 0 63.914-28.615 63.914-63.914 0-35.299-28.615-63.914-63.914-63.914-35.299 0-63.914 28.615-63.914 63.914 0 35.299 28.615 63.914 63.914 63.914z" data-fill-palette-color="accent" fill="#ee3e38" stroke="transparent"></path></g><g transform="matrix(1,0,0,1,31.36684111350315,32.36283664444194)"><svg viewBox="0 0 79.38588413359376 77.39389307171618" height="77.39389307171618" width="79.38588413359376"><g><svg xmlns="http://www.w3.org/2000/svg" data-name="Layer 1" viewBox="13.90999984741211 14.640000343322754 62.17000198364258 60.61000061035156" x="0" y="0" height="77.39389307171618" width="79.38588413359376" class="icon-s-0" data-fill-palette-color="accent" id="s-0"><path d="M69.93 26.65L45 14.64l-24.93 12-6.16 27L31.17 75.25H58.83L76.08 53.62ZM57.87 73.25H32.13l2.08-22.7L16.08 53.12 21.81 28l23 7 23.43-7 5.73 25.09L55.4 50.54Z" fill="#ee3e38" data-fill-palette-color="accent"></path><polygon points="44.76 35.08 34.21 50.54 55.4 50.54 44.76 35.08" fill="#ee3e38" data-fill-palette-color="accent"></polygon></svg></g></svg></g></svg></g></svg></g></svg></g><defs></defs></svg><rect width="395.52" height="97.74943139680003" fill="none" stroke="none" visibility="hidden"></rect></g></svg></g></svg>